<svg height="72pt" preserveAspectRatio="xMidYMid meet" viewBox="0 0 72 72" width="72pt" xmlns="http://www.w3.org/2000/svg"><g transform="matrix(.1 0 0 -.1 0 72)"><path d="m510 528c-130-34-173-67-162-124 4-24 49-44 98-44 27 0 84-20 84-29 0-22-89-73-130-76-27-1-36-21-26-60 5-20 11-23 42-19 78 10 158 63 169 113 11 49-51 143-87 133-5-1-8 2-8 8 0 14 59 27 116 24 72-3 84 6 60 51-11 19-24 35-30 36-6 0-21 2-33 3s-54-6-93-16z"/><path d="m86 531c-4-5-4-42-1-83 3-49-1-94-12-139-17-70-12-116 13-126 19-7 112 29 174 68 91 56 97 123 19 194-57 51-181 107-193 86zm100-97c45-18 84-51 84-71 0-15-66-59-102-68-23-6-23-5-23 75 0 44 1 80 1 80 1 0 19-7 40-16z"/></g></svg>